<svg version="1.1" id="Layer_1" xmlns="http://www.w3.org/2000/svg" x="0" y="0" width="522" height="475" viewBox="0 0 525 475" xml:space="preserve"><style>.st0{opacity:.2}</style><path class="st0" d="M332.4 178l-4.8 40.3c83.5 19.7 132.9 74.1 154.7 104.5-91.4 146.6-348.6 146.2-439.6 0 21.8-30.4 71.1-84.8 154.7-104.5l-4.6-39.1C71.3 206.3 2.1 288.7 0 331.3 19.9 363.4 100.6 475 262.5 475c164.5-5 260-110.6 262.5-160.7-16.8-27.1-76.9-110.8-192.6-136.3z"/><path class="st0" d="M200.5 0h123.9l-27.8 235.9h-68.3L200.5 0zm6.4 322.8c-1.1 72.4 112.3 72.4 111.3 0 1-72.4-112.4-72.4-111.3 0z"/></svg>